<?xml version="1.0" encoding="UTF-8"?>
<svg width="155px" height="125px" viewBox="0 0 155 125" version="1.1" xmlns="http://www.w3.org/2000/svg" xmlns:xlink="http://www.w3.org/1999/xlink">
    <!-- Generator: Sketch 46.2 (44496) - http://www.bohemiancoding.com/sketch -->
    <title>Group</title>
    <desc>Created with Sketch.</desc>
    <defs>
        <linearGradient x1="36.625752%" y1="121.860055%" x2="49.7213681%" y2="-24.8542704%" id="linearGradient-1">
            <stop stop-color="#D5D4D0" offset="0%"></stop>
            <stop stop-color="#F1F1F1" offset="34.049758%"></stop>
            <stop stop-color="#FFFFFF" offset="50.847763%"></stop>
            <stop stop-color="#F0F0F0" offset="69.339013%"></stop>
            <stop stop-color="#D4D4D4" offset="100%"></stop>
        </linearGradient>
    </defs>
    <g id="Page-1" stroke="none" stroke-width="1" fill="none" fill-rule="evenodd">
        <g id="Group" transform="translate(-2.000000, -4.000000)">
            <g id="folders-copy" transform="translate(0.000000, 35.000000)">
                <g id="g9434" transform="translate(80.154962, 48.994793) rotate(-2.979533) translate(-80.154962, -48.994793) translate(2.654962, 3.994793)">
                    <g id="g9438" transform="translate(0.573624, 0.567162)" fill-rule="nonzero">
                        <g id="g9500" transform="translate(0.578816, 0.338779)">
                            <path d="M88.2456503,0.612790002 C-2.46461001,50.8766602 16.4942901,41.3037102 0.939060004,50.1027302 L6.8589759,51.1758844 L8.43078979,55.3923564 L15.5733269,55.0369454 L18.3772773,60.4491772 L25.0462936,60.3087632 L28.8455674,65.7712839 L35.5680133,65.2022974 L37.9054643,70.3773597 L44.5953294,69.7918091 L46.655033,74.8256639 L53.0139766,74.0718718 L54.4196606,78.7732213 L60.6486984,78.5227232 L61.6125519,82.4301065 L68.5782544,81.9847923 L71.5120529,87.4630393 L152.174161,32.0445501 L88.2456503,0.612790002 Z" id="path9502" stroke="#8C8C8C" stroke-width="1.70000006" fill="#FFFFFF" stroke-linecap="round"></path>
                            <path d="M88.2456503,5.30487002 C-2.46461001,55.5687402 24.2697401,41.0355902 8.71451003,49.8346102 L72.4286203,81.2880503 L144.800891,32.7148501 L88.2456503,5.30487002 Z" id="path9504" fill="url(#linearGradient-1)"></path>
                        </g>
                    </g>
                    <g id="g9506" transform="translate(26.363981, 9.394562)" stroke="#9C9C9C">
                        <path d="M57.4366302,0.0407000002 L70.6752503,6.24041002" id="path9508"></path>
                        <path d="M51.2699002,3.52622001 L65.7150503,10.33601" id="path9510"></path>
                        <path d="M54.1069302,1.63852001 L65.4687203,6.88921003" id="path9512"></path>
                        <path d="M41.6176102,8.48647003 L84.4833703,29.6670501" id="path9514"></path>
                        <path d="M28.2116601,15.7256901 L61.4251402,32.0256201" id="path9516"></path>
                        <path d="M33.0378001,13.1785501 L74.2948503,33.5456901" id="path9518"></path>
                        <path d="M37.4617701,10.76548 L72.3109103,27.8924801" id="path9520"></path>
                        <path d="M17.2187801,22.0264901 L30.5914601,28.2939901" id="path9522"></path>
                        <path d="M38.5342402,32.8853101 L51.9069202,39.1528102" id="path9524"></path>
                        <path d="M0.997590004,33.1533901 L39.7075002,52.2325802" id="path9526"></path>
                        <path d="M94.7269504,13.3017001 L103.43749,17.2118001" id="path9528" stroke-width="0.999999944"></path>
                    </g>
                </g>
            </g>
            <g id="folders-copy" transform="translate(0.000000, 26.000000)">
                <g id="g9434" transform="translate(80.154962, 48.994793) rotate(-2.979533) translate(-80.154962, -48.994793) translate(2.654962, 3.994793)">
                    <g id="g9438" transform="translate(0.573624, 0.567162)" fill-rule="nonzero">
                        <g id="g9500" transform="translate(0.578816, 0.338779)">
                            <path d="M88.2456503,0.612790002 C-2.46461001,50.8766602 16.4942901,41.3037102 0.939060004,50.1027302 L6.8589759,51.1758844 L8.43078979,55.3923564 L15.5733269,55.0369454 L18.3772773,60.4491772 L25.0462936,60.3087632 L28.8455674,65.7712839 L35.5680133,65.2022974 L37.9054643,70.3773597 L44.5953294,69.7918091 L46.655033,74.8256639 L53.0139766,74.0718718 L54.4196606,78.7732213 L60.6486984,78.5227232 L61.6125519,82.4301065 L68.5782544,81.9847923 L71.5120529,87.4630393 L152.174161,32.0445501 L88.2456503,0.612790002 Z" id="path9502" stroke="#8C8C8C" stroke-width="1.70000006" fill="#FFFFFF" stroke-linecap="round"></path>
                            <path d="M88.2456503,5.30487002 C-2.46461001,55.5687402 24.2697401,41.0355902 8.71451003,49.8346102 L72.4286203,81.2880503 L144.800891,32.7148501 L88.2456503,5.30487002 Z" id="path9504" fill="url(#linearGradient-1)"></path>
                        </g>
                    </g>
                    <g id="g9506" transform="translate(26.363981, 9.394562)" stroke="#9C9C9C">
                        <path d="M57.4366302,0.0407000002 L70.6752503,6.24041002" id="path9508"></path>
                        <path d="M51.2699002,3.52622001 L65.7150503,10.33601" id="path9510"></path>
                        <path d="M54.1069302,1.63852001 L65.4687203,6.88921003" id="path9512"></path>
                        <path d="M41.6176102,8.48647003 L84.4833703,29.6670501" id="path9514"></path>
                        <path d="M28.2116601,15.7256901 L61.4251402,32.0256201" id="path9516"></path>
                        <path d="M33.0378001,13.1785501 L74.2948503,33.5456901" id="path9518"></path>
                        <path d="M37.4617701,10.76548 L72.3109103,27.8924801" id="path9520"></path>
                        <path d="M17.2187801,22.0264901 L30.5914601,28.2939901" id="path9522"></path>
                        <path d="M38.5342402,32.8853101 L51.9069202,39.1528102" id="path9524"></path>
                        <path d="M0.997590004,33.1533901 L39.7075002,52.2325802" id="path9526"></path>
                        <path d="M94.7269504,13.3017001 L103.43749,17.2118001" id="path9528" stroke-width="0.999999944"></path>
                    </g>
                </g>
            </g>
            <g id="folders-copy" transform="translate(0.000000, 17.000000)">
                <g id="g9434" transform="translate(80.154962, 48.994793) rotate(-2.979533) translate(-80.154962, -48.994793) translate(2.654962, 3.994793)">
                    <g id="g9438" transform="translate(0.573624, 0.567162)" fill-rule="nonzero">
                        <g id="g9500" transform="translate(0.578816, 0.338779)">
                            <path d="M88.2456503,0.612790002 C-2.46461001,50.8766602 16.4942901,41.3037102 0.939060004,50.1027302 L6.8589759,51.1758844 L8.43078979,55.3923564 L15.5733269,55.0369454 L18.3772773,60.4491772 L25.0462936,60.3087632 L28.8455674,65.7712839 L35.5680133,65.2022974 L37.9054643,70.3773597 L44.5953294,69.7918091 L46.655033,74.8256639 L53.0139766,74.0718718 L54.4196606,78.7732213 L60.6486984,78.5227232 L61.6125519,82.4301065 L68.5782544,81.9847923 L71.5120529,87.4630393 L152.174161,32.0445501 L88.2456503,0.612790002 Z" id="path9502" stroke="#8C8C8C" stroke-width="1.70000006" fill="#FFFFFF" stroke-linecap="round"></path>
                            <path d="M88.2456503,5.30487002 C-2.46461001,55.5687402 24.2697401,41.0355902 8.71451003,49.8346102 L72.4286203,81.2880503 L144.800891,32.7148501 L88.2456503,5.30487002 Z" id="path9504" fill="url(#linearGradient-1)"></path>
                        </g>
                    </g>
                    <g id="g9506" transform="translate(26.363981, 9.394562)" stroke="#9C9C9C">
                        <path d="M57.4366302,0.0407000002 L70.6752503,6.24041002" id="path9508"></path>
                        <path d="M51.2699002,3.52622001 L65.7150503,10.33601" id="path9510"></path>
                        <path d="M54.1069302,1.63852001 L65.4687203,6.88921003" id="path9512"></path>
                        <path d="M41.6176102,8.48647003 L84.4833703,29.6670501" id="path9514"></path>
                        <path d="M28.2116601,15.7256901 L61.4251402,32.0256201" id="path9516"></path>
                        <path d="M33.0378001,13.1785501 L74.2948503,33.5456901" id="path9518"></path>
                        <path d="M37.4617701,10.76548 L72.3109103,27.8924801" id="path9520"></path>
                        <path d="M17.2187801,22.0264901 L30.5914601,28.2939901" id="path9522"></path>
                        <path d="M38.5342402,32.8853101 L51.9069202,39.1528102" id="path9524"></path>
                        <path d="M0.997590004,33.1533901 L39.7075002,52.2325802" id="path9526"></path>
                        <path d="M94.7269504,13.3017001 L103.43749,17.2118001" id="path9528" stroke-width="0.999999944"></path>
                    </g>
                </g>
            </g>
            <g id="folders-copy" transform="translate(0.000000, 8.000000)">
                <g id="g9434" transform="translate(80.154962, 48.994793) rotate(-2.979533) translate(-80.154962, -48.994793) translate(2.654962, 3.994793)">
                    <g id="g9438" transform="translate(0.573624, 0.567162)" fill-rule="nonzero">
                        <g id="g9500" transform="translate(0.578816, 0.338779)">
                            <path d="M88.2456503,0.612790002 C-2.46461001,50.8766602 16.4942901,41.3037102 0.939060004,50.1027302 L6.8589759,51.1758844 L8.43078979,55.3923564 L15.5733269,55.0369454 L18.3772773,60.4491772 L25.0462936,60.3087632 L28.8455674,65.7712839 L35.5680133,65.2022974 L37.9054643,70.3773597 L44.5953294,69.7918091 L46.655033,74.8256639 L53.0139766,74.0718718 L54.4196606,78.7732213 L60.6486984,78.5227232 L61.6125519,82.4301065 L68.5782544,81.9847923 L71.5120529,87.4630393 L152.174161,32.0445501 L88.2456503,0.612790002 Z" id="path9502" stroke="#8C8C8C" stroke-width="1.70000006" fill="#FFFFFF" stroke-linecap="round"></path>
                            <path d="M88.2456503,5.30487002 C-2.46461001,55.5687402 24.2697401,41.0355902 8.71451003,49.8346102 L72.4286203,81.2880503 L144.800891,32.7148501 L88.2456503,5.30487002 Z" id="path9504" fill="url(#linearGradient-1)"></path>
                        </g>
                    </g>
                    <g id="g9506" transform="translate(26.363981, 9.394562)" stroke="#9C9C9C">
                        <path d="M57.4366302,0.0407000002 L70.6752503,6.24041002" id="path9508"></path>
                        <path d="M51.2699002,3.52622001 L65.7150503,10.33601" id="path9510"></path>
                        <path d="M54.1069302,1.63852001 L65.4687203,6.88921003" id="path9512"></path>
                        <path d="M41.6176102,8.48647003 L84.4833703,29.6670501" id="path9514"></path>
                        <path d="M28.2116601,15.7256901 L61.4251402,32.0256201" id="path9516"></path>
                        <path d="M33.0378001,13.1785501 L74.2948503,33.5456901" id="path9518"></path>
                        <path d="M37.4617701,10.76548 L72.3109103,27.8924801" id="path9520"></path>
                        <path d="M17.2187801,22.0264901 L30.5914601,28.2939901" id="path9522"></path>
                        <path d="M38.5342402,32.8853101 L51.9069202,39.1528102" id="path9524"></path>
                        <path d="M0.997590004,33.1533901 L39.7075002,52.2325802" id="path9526"></path>
                        <path d="M94.7269504,13.3017001 L103.43749,17.2118001" id="path9528" stroke-width="0.999999944"></path>
                    </g>
                </g>
            </g>
            <g id="folders">
                <g id="g9434" transform="translate(80.154962, 48.994793) rotate(-2.979533) translate(-80.154962, -48.994793) translate(2.654962, 3.994793)">
                    <g id="g9438" transform="translate(0.573624, 0.567162)" fill-rule="nonzero">
                        <g id="g9500" transform="translate(0.578816, 0.338779)">
                            <path d="M88.2456503,0.612790002 C-2.46461001,50.8766602 16.4942901,41.3037102 0.939060004,50.1027302 L6.8589759,51.1758844 L8.43078979,55.3923564 L15.5733269,55.0369454 L18.3772773,60.4491772 L25.0462936,60.3087632 L28.8455674,65.7712839 L35.5680133,65.2022974 L37.9054643,70.3773597 L44.5953294,69.7918091 L46.655033,74.8256639 L53.0139766,74.0718718 L54.4196606,78.7732213 L60.6486984,78.5227232 L61.6125519,82.4301065 L68.5782544,81.9847923 L71.5120529,87.4630393 L152.174161,32.0445501 L88.2456503,0.612790002 Z" id="path9502" stroke="#8C8C8C" stroke-width="1.70000006" fill="#FFFFFF" stroke-linecap="round"></path>
                            <path d="M88.2456503,5.30487002 C-2.46461001,55.5687402 24.2697401,41.0355902 8.71451003,49.8346102 L72.4286203,81.2880503 L144.800891,32.7148501 L88.2456503,5.30487002 Z" id="path9504" fill="url(#linearGradient-1)"></path>
                        </g>
                    </g>
                    <g id="g9506" transform="translate(26.363981, 9.394562)" stroke="#9C9C9C">
                        <path d="M57.4366302,0.0407000002 L70.6752503,6.24041002" id="path9508"></path>
                        <path d="M51.2699002,3.52622001 L65.7150503,10.33601" id="path9510"></path>
                        <path d="M54.1069302,1.63852001 L65.4687203,6.88921003" id="path9512"></path>
                        <path d="M41.6176102,8.48647003 L84.4833703,29.6670501" id="path9514"></path>
                        <path d="M28.2116601,15.7256901 L61.4251402,32.0256201" id="path9516"></path>
                        <path d="M33.0378001,13.1785501 L74.2948503,33.5456901" id="path9518"></path>
                        <path d="M37.4617701,10.76548 L72.3109103,27.8924801" id="path9520"></path>
                        <path d="M17.2187801,22.0264901 L30.5914601,28.2939901" id="path9522"></path>
                        <path d="M38.5342402,32.8853101 L51.9069202,39.1528102" id="path9524"></path>
                        <path d="M0.997590004,33.1533901 L39.7075002,52.2325802" id="path9526"></path>
                        <path d="M94.7269504,13.3017001 L103.43749,17.2118001" id="path9528" stroke-width="0.999999944"></path>
                    </g>
                </g>
            </g>
        </g>
    </g>
</svg>